<svg width="100" height="32" viewBox="0 0 100 32" fill="none" xmlns="http://www.w3.org/2000/svg">
<g clip-path="url(#clip0_14158_25420)">
<path d="M25.1882 17.6096L21.5349 21.207L20.6085 11.7053L10.96 10.7929L14.613 7.19519L19.5066 7.65791C20.8453 7.78454 22.0975 8.36596 23.0484 9.30244C23.9994 10.2389 24.5898 11.4721 24.7183 12.7904L25.1882 17.6096Z" fill="#632ABB"/>
<path d="M32.4948 10.4141L28.8415 14.0118L27.9151 4.51008L18.2666 3.59776L21.9199 0L26.8132 0.46272C28.1519 0.58935 29.4041 1.17077 30.3551 2.10725C31.306 3.04373 31.8964 4.27689 32.025 5.5952L32.4948 10.4141Z" fill="#632ABB"/>
<path d="M14.6123 7.19517L6.53095 6.43197L7.30756 14.392L3.65294 17.9881L2.77137 8.95261C2.42303 5.38333 5.46611 2.38653 9.09052 2.72957L18.2656 3.59773L14.6123 7.19517Z" fill="#DC49A6"/>
<path d="M23.4036 29.2704L14.2285 28.4022L17.8818 24.8048L25.9648 25.5696L25.1882 17.6096L28.8412 14.0118L29.7227 23.0474C30.0711 26.6166 27.028 29.6134 23.4036 29.2704Z" fill="#DC49A6"/>
<path d="M21.5349 21.207L17.8819 24.8048L12.9883 24.3421C11.6496 24.2155 10.3974 23.634 9.44644 22.6976C8.49549 21.7611 7.90509 20.5279 7.77651 19.2096L7.30664 14.3904L10.96 10.793L11.8864 20.2947L21.5349 21.207Z" fill="#632ABB"/>
<path d="M14.2282 28.4022L10.5749 32L5.68162 31.5373C4.34294 31.4106 3.09074 30.8292 2.1398 29.8927C1.18885 28.9563 0.598452 27.7231 0.469866 26.4048L0 21.5859L3.65333 17.9882L4.57974 27.4899L14.2282 28.4022Z" fill="#632ABB"/>
<path d="M65.9137 6.40002L60.143 25.5728H56.5293L52.4393 11.0621L48.0974 25.5728L44.5117 25.6L38.9932 6.40002H42.3826L46.4165 22.0141L50.7866 6.40002H54.3724L58.4341 21.9312L62.4959 6.40002H65.9137Z" fill="white"/>
<path d="M81.0122 14.8688C80.5453 15.7335 79.798 16.4375 78.7701 16.9808C77.7422 17.5242 76.4259 17.7946 74.8214 17.792H71.2922V25.5728H68.0986V6.40002H74.8217C76.3164 6.40002 77.5816 6.65293 78.6173 7.15874C79.653 7.66456 80.4282 8.34957 80.943 9.21378C81.4568 10.078 81.7136 11.0434 81.7134 12.1101C81.7161 13.0728 81.4751 14.0209 81.0122 14.8688ZM77.5385 14.4138C78.1358 13.8717 78.4346 13.1037 78.435 12.1098C78.435 10.0136 77.2305 8.96525 74.8214 8.96482H71.2922V15.2279H74.8217C76.0352 15.2279 76.9409 14.9565 77.5385 14.4138Z" fill="white"/>
<path d="M99.8646 6.40002V25.5728H96.6701V17.1866H87.5099V25.5728H84.3164V6.40002H87.5099V14.6208H96.6701V6.40002H99.8646Z" fill="white"/>
</g>
<defs>
<clipPath id="clip0_14158_25420">
<rect width="99.8648" height="32" fill="white"/>
</clipPath>
</defs>
</svg>
