<svg width="56" height="56" viewBox="0 0 56 56" fill="none" xmlns="http://www.w3.org/2000/svg">
<path d="M44.0837 18.5173C45.8425 21.5037 46.7355 24.9207 46.6627 28.3858C46.59 31.8509 45.5543 35.2273 43.6717 38.1373C41.789 41.0472 39.1337 43.3758 36.0029 44.8624C32.872 46.349 29.3893 46.9349 25.9443 46.5547M11.9163 37.4827C10.1575 34.4963 9.26451 31.0793 9.33728 27.6142C9.41004 24.1491 10.4457 20.7727 12.3283 17.8627C14.211 14.9528 16.8663 12.6242 19.9972 11.1376C23.128 9.65102 26.6108 9.06506 30.0557 9.44533" stroke="#6ABECD" stroke-width="4.66667" stroke-linecap="round" stroke-linejoin="round"/>
<path d="M37.8998 18.1002C39.7223 19.9226 42.6771 19.9226 44.4995 18.1002C46.322 16.2777 46.322 13.3229 44.4995 11.5005C42.6771 9.67805 39.7223 9.67805 37.8998 11.5005C36.0774 13.3229 36.0774 16.2777 37.8998 18.1002Z" fill="#6ABECD" stroke="#6ABECD" stroke-width="4.66667" stroke-linecap="round" stroke-linejoin="round"/>
<path d="M11.5005 44.4995C13.323 46.3219 16.2777 46.3219 18.1002 44.4995C19.9226 42.6771 19.9226 39.7223 18.1002 37.8998C16.2777 36.0774 13.323 36.0774 11.5005 37.8998C9.67808 39.7223 9.67808 42.6771 11.5005 44.4995Z" fill="#6ABECD" stroke="#6ABECD" stroke-width="4.66667" stroke-linecap="round" stroke-linejoin="round"/>
<path d="M24.7002 31.2998C26.5226 33.1223 29.4774 33.1223 31.2998 31.2998C33.1223 29.4774 33.1223 26.5226 31.2998 24.7002C29.4774 22.8777 26.5226 22.8777 24.7002 24.7002C22.8777 26.5226 22.8777 29.4774 24.7002 31.2998Z" fill="#6ABECD" stroke="#6ABECD" stroke-width="4.66667" stroke-linecap="round" stroke-linejoin="round"/>
</svg>
