<svg width="56" height="56" viewBox="0 0 56 56" fill="none" xmlns="http://www.w3.org/2000/svg">
<g clip-path="url(#clip0_1_878)">
<path fill-rule="evenodd" clip-rule="evenodd" d="M7 11.6667C7 10.429 7.49167 9.242 8.36683 8.36683C9.242 7.49167 10.429 7 11.6667 7H25.6667V25.6667H7V11.6667ZM25.6667 30.3333H7V44.3333C7 45.571 7.49167 46.758 8.36683 47.6332C9.242 48.5083 10.429 49 11.6667 49H25.6667V30.3333ZM30.3333 49H44.3333C45.571 49 46.758 48.5083 47.6332 47.6332C48.5083 46.758 49 45.571 49 44.3333V37.3333H30.3333V49ZM30.3333 32.6667H49V23.3333H30.3333V32.6667ZM30.3333 18.6667H49V11.6667C49 10.429 48.5083 9.242 47.6332 8.36683C46.758 7.49167 45.571 7 44.3333 7H30.3333V18.6667Z" fill="#F48925"/>
</g>
<defs>
<clipPath id="clip0_1_878">
<rect width="56" height="56" fill="white"/>
</clipPath>
</defs>
</svg>
