<svg width="21" height="21" viewBox="0 0 21 21" fill="none" xmlns="http://www.w3.org/2000/svg">
<path d="M6.6712 10.2638C6.6712 8.42126 8.16402 6.92721 10.006 6.92721C11.848 6.92721 13.3416 8.42126 13.3416 10.2638C13.3416 12.1063 11.848 13.6003 10.006 13.6003C8.16402 13.6003 6.6712 12.1063 6.6712 10.2638ZM4.86804 10.2638C4.86804 13.1023 7.1683 15.4032 10.006 15.4032C12.8437 15.4032 15.144 13.1023 15.144 10.2638C15.144 7.42525 12.8437 5.12433 10.006 5.12433C7.1683 5.12433 4.86804 7.42525 4.86804 10.2638ZM14.1466 4.92055C14.1465 5.15809 14.2169 5.39034 14.3487 5.5879C14.4806 5.78547 14.6681 5.93949 14.8874 6.03048C15.1068 6.12148 15.3482 6.14536 15.5811 6.09911C15.8141 6.05286 16.0281 5.93855 16.1961 5.77065C16.3641 5.60274 16.4785 5.38878 16.5249 5.15581C16.5713 4.92285 16.5477 4.68134 16.4569 4.46184C16.3661 4.24234 16.2123 4.0547 16.0148 3.92264C15.8174 3.79059 15.5853 3.72006 15.3478 3.71996H15.3474C15.029 3.72011 14.7238 3.84663 14.4987 4.07174C14.2735 4.29685 14.1469 4.60213 14.1466 4.92055ZM5.96358 18.4108C4.98803 18.3663 4.45779 18.2038 4.10542 18.0665C3.63826 17.8845 3.30494 17.6679 2.95449 17.3178C2.60404 16.9677 2.38711 16.6346 2.20604 16.1673C2.06868 15.815 1.90618 15.2845 1.86184 14.3086C1.81333 13.2536 1.80364 12.9367 1.80364 10.2639C1.80364 7.591 1.81413 7.27496 1.86184 6.21906C1.90626 5.24323 2.06996 4.71372 2.20604 4.36037C2.38791 3.89307 2.60452 3.55966 2.95449 3.20911C3.30446 2.85856 3.63746 2.64156 4.10542 2.46044C4.45763 2.32304 4.98803 2.1605 5.96358 2.11614C7.01829 2.06761 7.33512 2.05792 10.006 2.05792C12.6769 2.05792 12.994 2.06841 14.0496 2.11614C15.0252 2.16058 15.5545 2.32432 15.9078 2.46044C16.3749 2.64156 16.7083 2.85904 17.0587 3.20911C17.4092 3.55918 17.6253 3.89307 17.8072 4.36037C17.9445 4.71268 18.107 5.24323 18.1514 6.21906C18.1999 7.27496 18.2096 7.591 18.2096 10.2639C18.2096 12.9367 18.1999 13.2527 18.1514 14.3086C18.1069 15.2845 17.9436 15.8149 17.8072 16.1673C17.6253 16.6346 17.4087 16.968 17.0587 17.3178C16.7087 17.6675 16.3749 17.8845 15.9078 18.0665C15.5556 18.2039 15.0252 18.3664 14.0496 18.4108C12.9949 18.4593 12.6781 18.469 10.006 18.469C7.33392 18.469 7.01797 18.4593 5.96358 18.4108ZM5.88073 0.315497C4.81553 0.36402 4.08765 0.53297 3.45199 0.780389C2.79368 1.0359 2.23638 1.37868 1.67949 1.93485C1.12259 2.49103 0.780788 3.04936 0.525355 3.70787C0.278007 4.34411 0.109105 5.0718 0.0605963 6.13731C0.0112868 7.20449 0 7.54568 0 10.2638C0 12.9819 0.0112868 13.323 0.0605963 14.3902C0.109105 15.4558 0.278007 16.1834 0.525355 16.8197C0.780788 17.4778 1.12267 18.0368 1.67949 18.5927C2.2363 19.1486 2.79368 19.4909 3.45199 19.7472C4.08885 19.9946 4.81553 20.1635 5.88073 20.212C6.94817 20.2606 7.28869 20.2727 10.006 20.2727C12.7233 20.2727 13.0644 20.2614 14.1313 20.212C15.1966 20.1635 15.9239 19.9946 16.56 19.7472C17.2179 19.4909 17.7756 19.1489 18.3325 18.5927C18.8894 18.0365 19.2305 17.4778 19.4866 16.8197C19.734 16.1834 19.9037 15.4557 19.9514 14.3902C19.9999 13.3222 20.0112 12.9819 20.0112 10.2638C20.0112 7.54568 19.9999 7.20449 19.9514 6.13731C19.9029 5.07172 19.734 4.34371 19.4866 3.70787C19.2305 3.04976 18.8885 2.49191 18.3325 1.93485C17.7765 1.3778 17.2179 1.0359 16.5608 0.780389C15.924 0.53297 15.1965 0.363219 14.1321 0.315497C13.0652 0.266974 12.7241 0.254883 10.0068 0.254883C7.28949 0.254883 6.94817 0.266173 5.88073 0.315497Z" fill="#0A0D12"/>
</svg>
