<svg width="21" height="21" viewBox="0 0 21 21" fill="none" xmlns="http://www.w3.org/2000/svg">
<path d="M6.6712 10.0509C6.6712 8.20836 8.16402 6.71432 10.006 6.71432C11.848 6.71432 13.3416 8.20836 13.3416 10.0509C13.3416 11.8934 11.848 13.3874 10.006 13.3874C8.16402 13.3874 6.6712 11.8934 6.6712 10.0509ZM4.86804 10.0509C4.86804 12.8894 7.1683 15.1903 10.006 15.1903C12.8437 15.1903 15.144 12.8894 15.144 10.0509C15.144 7.21236 12.8437 4.91144 10.006 4.91144C7.1683 4.91144 4.86804 7.21236 4.86804 10.0509ZM14.1466 4.70766C14.1465 4.9452 14.2169 5.17745 14.3487 5.37501C14.4806 5.57258 14.6681 5.7266 14.8874 5.81759C15.1068 5.90859 15.3482 5.93247 15.5811 5.88622C15.8141 5.83997 16.0281 5.72566 16.1961 5.55776C16.3641 5.38985 16.4785 5.17589 16.5249 4.94292C16.5713 4.70996 16.5477 4.46845 16.4569 4.24895C16.3661 4.02945 16.2123 3.84181 16.0148 3.70975C15.8174 3.5777 15.5853 3.50716 15.3478 3.50707H15.3474C15.029 3.50722 14.7238 3.63374 14.4987 3.85885C14.2735 4.08396 14.1469 4.38924 14.1466 4.70766ZM5.96358 18.1979C4.98803 18.1534 4.45779 17.9909 4.10542 17.8536C3.63826 17.6716 3.30494 17.455 2.95449 17.1049C2.60404 16.7548 2.38711 16.4217 2.20604 15.9544C2.06868 15.6021 1.90618 15.0716 1.86184 14.0958C1.81333 13.0407 1.80364 12.7238 1.80364 10.051C1.80364 7.37811 1.81413 7.06207 1.86184 6.00617C1.90626 5.03034 2.06996 4.50083 2.20604 4.14748C2.38791 3.68018 2.60452 3.34677 2.95449 2.99622C3.30446 2.64566 3.63746 2.42867 4.10542 2.24755C4.45763 2.11015 4.98803 1.9476 5.96358 1.90325C7.01829 1.85472 7.33512 1.84503 10.006 1.84503C12.6769 1.84503 12.994 1.85552 14.0496 1.90325C15.0252 1.94768 15.5545 2.11143 15.9078 2.24755C16.3749 2.42867 16.7083 2.64615 17.0587 2.99622C17.4092 3.34629 17.6253 3.68018 17.8072 4.14748C17.9445 4.49979 18.107 5.03034 18.1514 6.00617C18.1999 7.06207 18.2096 7.37811 18.2096 10.051C18.2096 12.7238 18.1999 13.0399 18.1514 14.0958C18.1069 15.0716 17.9436 15.602 17.8072 15.9544C17.6253 16.4217 17.4087 16.7552 17.0587 17.1049C16.7087 17.4547 16.3749 17.6716 15.9078 17.8536C15.5556 17.991 15.0252 18.1535 14.0496 18.1979C12.9949 18.2464 12.6781 18.2561 10.006 18.2561C7.33392 18.2561 7.01797 18.2464 5.96358 18.1979ZM5.88073 0.102606C4.81553 0.151129 4.08765 0.320079 3.45199 0.567499C2.79368 0.823006 2.23638 1.16579 1.67949 1.72196C1.12259 2.27814 0.780788 2.83647 0.525355 3.49498C0.278007 4.13122 0.109105 4.85891 0.0605963 5.92442C0.0112868 6.9916 0 7.33279 0 10.0509C0 12.769 0.0112868 13.1102 0.0605963 14.1773C0.109105 15.2429 0.278007 15.9705 0.525355 16.6068C0.780788 17.2649 1.12267 17.8239 1.67949 18.3798C2.2363 18.9357 2.79368 19.278 3.45199 19.5343C4.08885 19.7817 4.81553 19.9506 5.88073 19.9992C6.94817 20.0477 7.28869 20.0598 10.006 20.0598C12.7233 20.0598 13.0644 20.0485 14.1313 19.9992C15.1966 19.9506 15.9239 19.7817 16.56 19.5343C17.2179 19.278 17.7756 18.936 18.3325 18.3798C18.8894 17.8236 19.2305 17.2649 19.4866 16.6068C19.734 15.9705 19.9037 15.2429 19.9514 14.1773C19.9999 13.1094 20.0112 12.769 20.0112 10.0509C20.0112 7.33279 19.9999 6.9916 19.9514 5.92442C19.9029 4.85883 19.734 4.13082 19.4866 3.49498C19.2305 2.83687 18.8885 2.27902 18.3325 1.72196C17.7765 1.16491 17.2179 0.823006 16.5608 0.567499C15.924 0.320079 15.1965 0.150328 14.1321 0.102606C13.0652 0.0540829 12.7241 0.0419922 10.0068 0.0419922C7.28949 0.0419922 6.94817 0.0532822 5.88073 0.102606Z" fill="#FDFDFD"/>
</svg>
