<svg width="18" height="17" viewBox="0 0 18 17" fill="none" xmlns="http://www.w3.org/2000/svg">
<path d="M4.39841 16.1056V5.30049H0.810138V16.1056H4.39879H4.39841ZM2.60503 3.82549C3.85607 3.82549 4.63493 2.99578 4.63493 1.95888C4.61151 0.898348 3.85607 0.0917969 2.62882 0.0917969C1.40072 0.0917969 0.598633 0.898349 0.598633 1.95878C0.598633 2.99568 1.37721 3.82539 2.58151 3.82539H2.60474L2.60503 3.82549ZM6.38458 16.1056H9.97257V10.0722C9.97257 9.7497 9.99599 9.42635 10.0908 9.196C10.3501 8.55051 10.9405 7.88234 11.9319 7.88234C13.23 7.88234 13.7496 8.87311 13.7496 10.3258V16.1056H17.3375V9.9103C17.3375 6.59156 15.5675 5.04717 13.2068 5.04717C11.2713 5.04717 10.4212 6.12992 9.94897 6.86738H9.97285V5.30087H6.38476C6.4316 6.31452 6.38448 16.106 6.38448 16.106L6.38458 16.1056Z" fill="#FDFDFD"/>
</svg>
