<svg width="18" height="17" viewBox="0 0 18 17" fill="none" xmlns="http://www.w3.org/2000/svg">
<path d="M4.39744 16.3185V5.51338H0.809161V16.3185H4.39781H4.39744ZM2.60405 4.03838C3.85509 4.03838 4.63395 3.20867 4.63395 2.17177C4.61054 1.11124 3.85509 0.304688 2.62784 0.304688C1.39975 0.304688 0.597656 1.11124 0.597656 2.17167C0.597656 3.20857 1.37623 4.03828 2.58054 4.03828H2.60377L2.60405 4.03838ZM6.3836 16.3185H9.97159V10.2851C9.97159 9.96259 9.99501 9.63924 10.0898 9.40889C10.3491 8.7634 10.9395 8.09523 11.931 8.09523C13.229 8.09523 13.7486 9.08601 13.7486 10.5387V16.3185H17.3365V10.1232C17.3365 6.80445 15.5665 5.26006 13.2058 5.26006C11.2703 5.26006 10.4203 6.34281 9.94799 7.08027H9.97188V5.51376H6.38379C6.43062 6.52741 6.38351 16.3189 6.38351 16.3189L6.3836 16.3185Z" fill="#0A0D12"/>
</svg>
