<svg width="137" height="24" viewBox="0 0 137 24" fill="none" xmlns="http://www.w3.org/2000/svg">
<path d="M12.5014 3L14.8514 8.76L21.0614 9.22L16.3014 13.24L17.7914 19.28L12.5014 16L7.21141 19.28L8.70141 13.24L3.94141 9.22L10.1514 8.76L12.5014 3Z" fill="#F3B64C"/>
<path d="M12.5014 3L10.1514 8.76L3.94141 9.22L8.70141 13.24L7.21141 19.28L12.5014 16M12.5014 3L14.8514 8.76L21.0614 9.22L16.3014 13.24L17.7914 19.28L12.5014 16" stroke="#F3B64C" stroke-width="2" stroke-linecap="round" stroke-linejoin="round"/>
<path d="M40.5014 3L42.8514 8.76L49.0614 9.22L44.3014 13.24L45.7914 19.28L40.5014 16L35.2114 19.28L36.7014 13.24L31.9414 9.22L38.1514 8.76L40.5014 3Z" fill="#F3B64C"/>
<path d="M40.5014 3L38.1514 8.76L31.9414 9.22L36.7014 13.24L35.2114 19.28L40.5014 16M40.5014 3L42.8514 8.76L49.0614 9.22L44.3014 13.24L45.7914 19.28L40.5014 16" stroke="#F3B64C" stroke-width="2" stroke-linecap="round" stroke-linejoin="round"/>
<path d="M68.5014 3L70.8514 8.76L77.0614 9.22L72.3014 13.24L73.7914 19.28L68.5014 16L63.2114 19.28L64.7014 13.24L59.9414 9.22L66.1514 8.76L68.5014 3Z" fill="#F3B64C"/>
<path d="M68.5014 3L66.1514 8.76L59.9414 9.22L64.7014 13.24L63.2114 19.28L68.5014 16M68.5014 3L70.8514 8.76L77.0614 9.22L72.3014 13.24L73.7914 19.28L68.5014 16" stroke="#F3B64C" stroke-width="2" stroke-linecap="round" stroke-linejoin="round"/>
<path d="M96.5014 3L98.8514 8.76L105.061 9.22L100.301 13.24L101.791 19.28L96.5014 16L91.2114 19.28L92.7014 13.24L87.9414 9.22L94.1514 8.76L96.5014 3Z" fill="#F3B64C"/>
<path d="M96.5014 3L94.1514 8.76L87.9414 9.22L92.7014 13.24L91.2114 19.28L96.5014 16M96.5014 3L98.8514 8.76L105.061 9.22L100.301 13.24L101.791 19.28L96.5014 16" stroke="#F3B64C" stroke-width="2" stroke-linecap="round" stroke-linejoin="round"/>
<path d="M124.501 3L126.851 8.76L133.061 9.22L128.301 13.24L129.791 19.28L124.501 16L119.211 19.28L120.701 13.24L115.941 9.22L122.151 8.76L124.501 3Z" fill="#F3B64C"/>
<path d="M124.501 3L122.151 8.76L115.941 9.22L120.701 13.24L119.211 19.28L124.501 16M124.501 3L126.851 8.76L133.061 9.22L128.301 13.24L129.791 19.28L124.501 16" stroke="#F3B64C" stroke-width="2" stroke-linecap="round" stroke-linejoin="round"/>
</svg>
