<svg width="18" height="20" viewBox="0 0 18 20" fill="none" xmlns="http://www.w3.org/2000/svg">
<path d="M15.2768 4.46528C15.1441 4.3967 15.0149 4.32152 14.8898 4.24002C14.5258 3.99939 14.192 3.71585 13.8958 3.39551C13.1545 2.54731 12.8776 1.68683 12.7756 1.08437H12.7797C12.6945 0.584294 12.7298 0.260742 12.7351 0.260742H9.35867V13.3167C9.35867 13.492 9.35867 13.6652 9.3513 13.8364C9.3513 13.8577 9.34925 13.8774 9.34802 13.9003C9.34802 13.9097 9.34802 13.9195 9.34597 13.9294C9.34597 13.9318 9.34597 13.9343 9.34597 13.9368C9.31038 14.4052 9.16022 14.8577 8.90869 15.2545C8.65716 15.6513 8.31198 15.9802 7.9035 16.2123C7.47779 16.4545 6.99629 16.5815 6.5065 16.5809C4.93338 16.5809 3.65842 15.2981 3.65842 13.714C3.65842 12.1298 4.93338 10.847 6.5065 10.847C6.80428 10.8468 7.10023 10.8936 7.38336 10.9859L7.38746 7.54803C6.52794 7.43701 5.65475 7.50532 4.82295 7.74865C3.99116 7.99199 3.21882 8.40507 2.55466 8.96183C1.9727 9.46747 1.48345 10.0708 1.10891 10.7446C0.966388 10.9904 0.428636 11.9778 0.363516 13.5804C0.32256 14.4901 0.595737 15.4325 0.725976 15.822V15.8301C0.807888 16.0595 1.1253 16.8422 1.64257 17.502C2.05968 18.0312 2.55248 18.4962 3.10511 18.8818V18.8736L3.1133 18.8818C4.74785 19.9925 6.56015 19.9196 6.56015 19.9196C6.87387 19.9069 7.9248 19.9196 9.11826 19.354C10.442 18.727 11.1955 17.7928 11.1955 17.7928C11.677 17.2346 12.0598 16.5984 12.3276 15.9116C12.6331 15.1085 12.7351 14.1452 12.7351 13.7602V6.83376C12.776 6.85834 13.3216 7.21916 13.3216 7.21916C13.3216 7.21916 14.1075 7.72292 15.3337 8.05097C16.2135 8.28442 17.3987 8.33357 17.3987 8.33357V4.98173C16.9834 5.02679 16.1402 4.89573 15.2768 4.46528Z" fill="#0A0D12"/>
</svg>
