<svg width="18" height="20" viewBox="0 0 18 20" fill="none" xmlns="http://www.w3.org/2000/svg">
<path d="M15.2758 4.25239C15.1431 4.18381 15.014 4.10863 14.8888 4.02713C14.5248 3.7865 14.1911 3.50296 13.8948 3.18262C13.1535 2.33442 12.8766 1.47394 12.7746 0.871476H12.7787C12.6936 0.371404 12.7288 0.0478516 12.7341 0.0478516H9.35769V13.1038C9.35769 13.2791 9.35769 13.4523 9.35032 13.6235C9.35032 13.6448 9.34827 13.6645 9.34704 13.6874C9.34704 13.6968 9.34704 13.7067 9.345 13.7165C9.345 13.7189 9.345 13.7214 9.345 13.7239C9.30941 14.1923 9.15924 14.6448 8.90771 15.0416C8.65619 15.4384 8.311 15.7673 7.90253 15.9994C7.47681 16.2416 6.99531 16.3686 6.50552 16.368C4.9324 16.368 3.65744 15.0852 3.65744 13.5011C3.65744 11.9169 4.9324 10.6341 6.50552 10.6341C6.80331 10.6339 7.09926 10.6807 7.38239 10.773L7.38648 7.33514C6.52697 7.22412 5.65377 7.29243 4.82197 7.53576C3.99018 7.7791 3.21784 8.19218 2.55368 8.74894C1.97173 9.25458 1.48247 9.85791 1.10794 10.5318C0.965411 10.7775 0.42766 11.7649 0.36254 13.3675C0.321584 14.2772 0.59476 15.2196 0.725 15.6091V15.6173C0.806912 15.8466 1.12432 16.6293 1.64159 17.2891C2.0587 17.8183 2.55151 18.2833 3.10413 18.6689V18.6607L3.11232 18.6689C4.74687 19.7796 6.55917 19.7067 6.55917 19.7067C6.8729 19.694 7.92383 19.7067 9.11728 19.1411C10.441 18.5141 11.1946 17.5799 11.1946 17.5799C11.676 17.0217 12.0588 16.3855 12.3266 15.6988C12.6321 14.8956 12.7341 13.9323 12.7341 13.5473V6.62087C12.7751 6.64544 13.3206 7.00627 13.3206 7.00627C13.3206 7.00627 14.1065 7.51003 15.3328 7.83808C16.2125 8.07153 17.3978 8.12068 17.3978 8.12068V4.76884C16.9825 4.8139 16.1392 4.68284 15.2758 4.25239Z" fill="#FDFDFD"/>
</svg>
